<svg width="100" height="100" viewBox="0 0 100 100" fill="none" xmlns="http://www.w3.org/2000/svg">
  <!-- THE EQUILIBRIUM PRIME: SOLID INSTITUTIONAL CROSS -->
  
  <!-- INSTITUTIONAL OUTER SHELL: PERFECT SYMMETRY ARCHITECTURE -->
  <path d="M30 4H70C72.2 4 74 5.8 74 8V30H96V70H74V92C74 94.2 72.2 96 70 96H30C27.8 96 26 94.2 26 92V70H4V30H26V8C26 5.8 27.8 4 30 4Z" fill="#1E40AF" fill-opacity="0.05" stroke="#38BDF8" stroke-width="1.8" stroke-linejoin="round"/>
  
  <!-- STRUCTURAL ALIGNMENT CROSSHAIRS -->
  <line x1="50" y1="8" x2="50" y2="92" stroke="#38BDF8" stroke-width="0.8" stroke-opacity="0.2" stroke-dasharray="4 4"/>
  <line x1="8" y1="50" x2="92" y2="50" stroke="#38BDF8" stroke-width="0.8" stroke-opacity="0.2" stroke-dasharray="4 4"/>

  <!-- THE PRECISION HUB: SOLID MEDICAL CROSS (Refined from 'Bandage' look) -->
  <!-- Single-path cross with solid fill for clinical authority -->
  <path d="M44 24H56V44H76V56H56V76H44V56H24V44H44V24Z" fill="#38BDF8" fill-opacity="0.9" stroke="#38BDF8" stroke-width="1.5" stroke-linejoin="round"/>
  
  <!-- NEURAL DATA STRANDS (Equilibrium Pulse) -->
  <path d="M44 40H56M44 60H56M40 44V56M60 44V56" stroke="white" stroke-width="1.2" stroke-opacity="0.6" stroke-linecap="round"/>

  <!-- ALIGNMENT ANCHORS: Modular data synchronization -->
  <circle cx="30" cy="12" r="2" fill="#38BDF8" opacity="0.4"/>
  <circle cx="70" cy="12" r="2" fill="#38BDF8" opacity="0.4"/>
  <circle cx="30" cy="88" r="2" fill="#38BDF8" opacity="0.4"/>
  <circle cx="70" cy="88" r="2" fill="#38BDF8" opacity="0.4"/>
  <circle cx="12" cy="30" r="2" fill="#38BDF8" opacity="0.4"/>
  <circle cx="12" cy="70" r="2" fill="#38BDF8" opacity="0.4"/>
  <circle cx="88" cy="30" r="2" fill="#38BDF8" opacity="0.4"/>
  <circle cx="88" cy="70" r="2" fill="#38BDF8" opacity="0.4"/>
</svg>
